<svg width="128" height="50" viewBox="0 0 128 50" fill="none" xmlns="http://www.w3.org/2000/svg">
<path d="M0 0H128V50H0V0Z" fill="#00AFDB"/>
<path d="M20.1338 27.4932V31H18.083V21.0469H21.9658C22.7132 21.0469 23.3695 21.1836 23.9346 21.457C24.5042 21.7305 24.9417 22.1201 25.2471 22.626C25.5524 23.1273 25.7051 23.6992 25.7051 24.3418C25.7051 25.3171 25.3701 26.0872 24.7002 26.6523C24.0348 27.2129 23.112 27.4932 21.9316 27.4932H20.1338ZM20.1338 25.832H21.9658C22.5081 25.832 22.9206 25.7044 23.2031 25.4492C23.4902 25.194 23.6338 24.8294 23.6338 24.3555C23.6338 23.8678 23.4902 23.4736 23.2031 23.1729C22.916 22.8721 22.5195 22.7171 22.0137 22.708H20.1338V25.832ZM29.1709 29.3525H33.5254V31H27.1201V21.0469H29.1709V29.3525ZM40.4639 28.9492H36.8682L36.1846 31H34.0039L37.709 21.0469H39.6094L43.335 31H41.1543L40.4639 28.9492ZM37.4219 27.2881H39.9102L38.6592 23.5625L37.4219 27.2881ZM46.6709 25.5312L48.7422 21.0469H50.9844L47.7168 27.3906V31H45.6318V27.3906L42.3643 21.0469H44.6133L46.6709 25.5312ZM58.0596 21.0469L60.6162 28.2656L63.1592 21.0469H65.8525V31H63.7949V28.2793L64 23.583L61.3135 31H59.9053L57.2256 23.5898L57.4307 28.2793V31H55.3799V21.0469H58.0596ZM73.3857 28.9492H69.79L69.1064 31H66.9258L70.6309 21.0469H72.5312L76.2568 31H74.0762L73.3857 28.9492ZM70.3438 27.2881H72.832L71.5811 23.5625L70.3438 27.2881ZM80.8711 27.3564H79.2373V31H77.1865V21.0469H80.8848C82.0605 21.0469 82.9674 21.3089 83.6055 21.833C84.2435 22.3571 84.5625 23.0977 84.5625 24.0547C84.5625 24.7337 84.4144 25.3011 84.1182 25.7568C83.8265 26.208 83.3822 26.568 82.7852 26.8369L84.9385 30.9043V31H82.7373L80.8711 27.3564ZM79.2373 25.6953H80.8916C81.4066 25.6953 81.8053 25.5654 82.0879 25.3057C82.3704 25.0413 82.5117 24.679 82.5117 24.2188C82.5117 23.7493 82.3773 23.3802 82.1084 23.1113C81.8441 22.8424 81.4362 22.708 80.8848 22.708H79.2373V25.6953ZM89.2451 27.0078L88.1787 28.1562V31H86.1279V21.0469H88.1787V25.5586L89.0811 24.3213L91.6172 21.0469H94.1396L90.6055 25.4697L94.2422 31H91.8018L89.2451 27.0078ZM101.003 26.6865H97.0654V29.3525H101.687V31H95.0146V21.0469H101.673V22.708H97.0654V25.0801H101.003V26.6865ZM110.519 22.708H107.47V31H105.419V22.708H102.411V21.0469H110.519V22.708Z" fill="white"/>
</svg>
